<svg xmlns="http://www.w3.org/2000/svg" viewBox="0 0 1018 180" data-arp-injected="true"><defs><style>.cls-1,.cls-2{fill:#0f83d1;}.cls-1{fill-rule:evenodd;}</style></defs><g id="Layer_2" data-name="Layer 2"><g id="Layer_1-2" data-name="Layer 1"><path class="cls-1" d="M296.19,12.33A14.67,14.67,0,1,1,281.53,27,14.67,14.67,0,0,1,296.19,12.33Z"/><path class="cls-1" d="M515.56,131.15c-23.3,0-40.64-16.78-40.64-40.22s17.34-40.22,40.64-40.22c23.69,0,40.37,16.68,40.37,40.27a53.62,53.62,0,0,1-.5,7.16H497a18,18,0,0,0,6.49,9.72c7.41,5.52,21.36,5,27.19-2.78l23.29-.17c-5.77,16.89-20.82,26.24-38.37,26.24ZM731,129.57V52.29h18.74l2,7.86c7.73-8.75,18.7-10.56,29.73-7.76V72.28c-8.13-1.47-17.29-2.31-23.75,4.06-3.37,3.32-5.22,8.18-5.22,14.3v38.93ZM874.84,52.29h13.57V51c0-26.37,17-36.83,41-29.4V39.79c-10.54-2.83-19.52-2-19.52,11.24v1.26h19.52V71.56H909.9l0,58H888.39l0-58H874.84V52.29Zm-463.34,0h13.55V34.48l21.48-2.9V52.29h19.56V71.56H446.53v29.6c0,11.77,10.33,11.41,19.46,9.87v18.46a65.17,65.17,0,0,1-12.83,1.37c-9,0-16.1-2.26-21-7-4.63-4.52-7.16-11.27-7.16-20.41V71.56H411.5V52.29ZM285,129.57V52.29h21.48v77.28Zm542.63,1.58c-23.3,0-40.65-16.78-40.65-40.22s17.35-40.22,40.65-40.22C851.28,50.71,868,67.39,868,91a55.34,55.34,0,0,1-.5,7.16H809a17.92,17.92,0,0,0,6.49,9.72c7.4,5.52,21.35,5,27.18-2.78l23.3-.17c-5.78,16.89-20.82,26.24-38.37,26.24ZM809.15,83.28h37.17c-5.32-17.45-31.68-17.31-37.17,0Zm208.85-31V124.1c0,22.45-14.37,35.65-34.28,38-14.05,1.63-29.13-1.45-38.66-12.65l15.51-12c8.28,11,36.6,7.79,36.59-11v-5.35C990.79,128,982.28,131,973,131c-21.1,0-30-14.34-30-34V52.29h21.48V94.68c0,9.64,4.24,16.43,14.55,16.43,10.47,0,17.44-6.2,17.44-16.86v-42ZM326.76,129.57V52.29H345.5l2.1,8.46c6.37-6.84,14.88-9.9,24.13-9.9,21.1,0,30,14.34,30,34v44.69H380.23V87.18c0-9.64-4.24-16.43-14.55-16.43-10.47,0-17.44,6.2-17.44,16.87v41.95Zm243.71,0V52.29h18.74l2,7.86c7.73-8.75,18.69-10.56,29.73-7.76V72.28c-8.14-1.47-17.29-2.31-23.75,4.06-3.37,3.32-5.22,8.18-5.22,14.3v38.93ZM497.13,83.28H534.3c-5.33-17.45-31.69-17.31-37.17,0Zm208.1,36.54C692.4,133.24,670,134.89,655.08,124v38.47H633.59V52.29h17.65l1.79,7.2a37.53,37.53,0,0,1,24.53-8.78c23.09,0,38.63,17.61,38.63,40.22,0,11.41-4,21.61-11,28.89Zm-50.3-28.89c0,11.63,8.22,20,19.89,20s19.74-8.5,19.74-20-8.12-20-19.74-20S654.93,79.3,654.93,90.93Z"/><path class="cls-1" d="M74.72,50.88v76.25a13.44,13.44,0,0,1-13.4,13.4h0a13.44,13.44,0,0,1-13.4-13.4V50.88a13.44,13.44,0,0,1,13.4-13.4h0A13.44,13.44,0,0,1,74.72,50.88Z"/><rect class="cls-2" y="65.07" width="26.8" height="47.87" rx="13.4"/><rect class="cls-2" x="159.05" y="37.48" width="26.8" height="103.05" rx="13.4"/><rect class="cls-2" x="206.97" y="65.07" width="26.8" height="47.87" rx="13.4"/><rect class="cls-2" x="95.82" y="47.8" width="42.12" height="132.2" rx="21.06"/><path class="cls-1" d="M116.89,0A17.58,17.58,0,1,1,99.31,17.57,17.57,17.57,0,0,1,116.89,0Z"/></g></g></svg>