<svg xmlns="http://www.w3.org/2000/svg" width="127px" height="26px" viewBox="0 0 127 26" data-arp-injected="true">
  <path d="M65.317 12.764c-1.038 0-1.786.342-2.545.691v7.89c.727.07 1.143.07 1.833.07 2.492 0 2.833-1.148 2.833-2.75v-3.768c0-1.183-.39-2.133-2.12-2.133zm-16.548-.43c-1.729 0-2.123.954-2.123 2.136v.663h4.244v-.663c0-1.182-.394-2.136-2.12-2.136zm-32.057 8.211c0 .935.44 1.42 1.407 1.42 1.04 0 1.654-.34 2.412-.69v-1.871h-2.27c-1.076 0-1.549.201-1.549 1.141zm64.702-7.78c-1.731 0-2.331.95-2.331 2.132v4.317c0 1.186.6 2.139 2.331 2.139 1.727 0 2.332-.953 2.332-2.14v-4.316c0-1.183-.605-2.133-2.332-2.133zM8.226 25.384h-5.09V13H.591V8.73h2.544V6.167c0-3.482 1.436-5.553 5.516-5.553h3.397v4.27H9.926c-1.589 0-1.694.596-1.694 1.71L8.226 8.73h3.846l-.45 4.268H8.226v12.388zm17.397.033H21.38l-.183-1.079a9.683 9.683 0 0 1-4.806 1.254c-3.112 0-4.768-2.09-4.768-4.98 0-3.41 1.933-4.626 5.39-4.626h3.518v-.737c0-1.74-.198-2.251-2.86-2.251h-4.353l.426-4.268H18.5c5.841 0 7.122 1.855 7.122 6.553v10.134zM40.05 13.312c-2.64-.455-3.398-.555-4.669-.555-2.281 0-2.97.506-2.97 2.454v3.685c0 1.948.689 2.456 2.97 2.456 1.27 0 2.029-.102 4.669-.559v4.164c-2.312.521-3.819.658-5.092.658-5.465 0-7.638-2.89-7.638-7.063v-2.99c0-4.178 2.173-7.072 7.638-7.072 1.273 0 2.78.137 5.092.66v4.162zm15.93 5.24h-9.335v.344c0 1.948.69 2.456 2.971 2.456 2.051 0 3.303-.102 5.938-.559v4.164c-2.542.521-3.866.658-6.36.658-5.465 0-7.639-2.89-7.639-7.063v-3.42c0-3.651 1.613-6.642 7.214-6.642 5.6 0 7.211 2.956 7.211 6.643v3.419zm16.547.079c0 4.034-1.146 6.976-8.094 6.976-2.51 0-3.981-.221-6.75-.65V1.897l5.088-.854V9.11c1.1-.41 2.523-.62 3.819-.62 5.09 0 5.937 2.294 5.937 5.98v4.16zm16.313.087c0 3.48-1.43 6.856-7.409 6.856-5.982 0-7.438-3.375-7.438-6.856v-3.36c0-3.482 1.456-6.858 7.438-6.858 5.98 0 7.409 3.376 7.409 6.858v3.36zm16.301 0c0 3.48-1.43 6.856-7.41 6.856-5.982 0-7.438-3.375-7.438-6.856v-3.36c0-3.482 1.456-6.858 7.439-6.858 5.978 0 7.41 3.376 7.41 6.858v3.36zm16.73 6.668h-5.517l-4.665-7.83v7.83h-5.09V1.896l5.09-.853v15.121l4.665-7.433h5.516l-5.093 8.112 5.093 8.543zM97.713 12.764c-1.728 0-2.328.95-2.328 2.133v4.317c0 1.186.6 2.139 2.328 2.139 1.727 0 2.338-.953 2.338-2.14v-4.316c0-1.183-.611-2.133-2.338-2.133zm27.062 9.7c.857 0 1.54.703 1.54 1.58 0 .891-.684 1.586-1.547 1.586-.859 0-1.555-.695-1.555-1.586 0-.877.696-1.58 1.555-1.58h.007zm-.007.246c-.69 0-1.256.597-1.256 1.334 0 .75.566 1.34 1.263 1.34.697.007 1.254-.59 1.254-1.333s-.557-1.341-1.254-1.341h-.007zm-.292 2.254h-.28V23.2c.147-.02.286-.041.496-.041.265 0 .439.056.545.132.103.078.158.197.158.365 0 .233-.152.373-.34.43v.013c.153.028.257.168.293.427.04.274.083.379.11.436h-.292c-.042-.057-.084-.218-.12-.45-.04-.224-.153-.308-.376-.308h-.194v.759zm0-.976h.202c.23 0 .424-.085.424-.303 0-.154-.11-.308-.424-.308-.091 0-.155.007-.202.013v.598z" fill="#3B5998" fill-rule="nonzero"/>
</svg>