<svg xmlns="http://www.w3.org/2000/svg" width="124px" height="41px" viewBox="0 0 124 41" data-arp-injected="true">
  <g fill-rule="nonzero" fill="none">
    <path d="M15.453 0h1.101c3.822.084 7.581 1.64 10.282 4.394-.997 1.03-2.015 2.019-2.991 3.05-1.517-1.389-3.344-2.46-5.338-2.84-2.95-.63-6.128-.062-8.6 1.64-2.7 1.788-4.527 4.815-4.922 8.053-.436 3.196.457 6.56 2.513 9.041 1.973 2.418 4.985 3.932 8.1 4.037 2.909.169 5.941-.736 8.06-2.796 1.661-1.45 2.43-3.658 2.679-5.803-3.448 0-6.896.02-10.344 0v-4.331h14.519c.748 4.646-.332 9.882-3.822 13.204-2.326 2.355-5.546 3.742-8.827 4.016-3.178.315-6.46-.295-9.285-1.85-3.385-1.83-6.086-4.92-7.415-8.558-1.246-3.343-1.267-7.128-.104-10.492a15.99 15.99 0 0 1 5.712-7.674C9.284 1.219 12.338.189 15.453 0z" fill="#3780FF"/>
    <path d="M98.743 1.093h4.445v30.025c-1.475 0-2.97.021-4.445-.021.02-9.987 0-19.995 0-30.004z" fill="#38B137"/>
    <path d="M40.399 11.501c2.741-.526 5.712.063 7.976 1.724 2.056 1.472 3.489 3.785 3.925 6.308.561 2.922-.145 6.118-2.015 8.431-2.014 2.586-5.317 3.974-8.536 3.764-2.95-.169-5.816-1.661-7.56-4.1-1.974-2.692-2.452-6.392-1.372-9.546 1.08-3.385 4.134-5.971 7.582-6.581zm.623 3.995a5.577 5.577 0 0 0-2.908 1.871c-2.015 2.44-1.89 6.413.332 8.684 1.267 1.303 3.178 1.913 4.944 1.556 1.64-.295 3.074-1.41 3.863-2.88 1.37-2.503.976-5.951-1.122-7.906-1.35-1.262-3.323-1.788-5.11-1.325z" fill="#FA3913"/>
    <path d="M62.415 11.501c3.137-.61 6.564.273 8.911 2.502 3.822 3.47 4.237 9.966.976 13.961-1.973 2.523-5.172 3.91-8.329 3.764-3.012-.084-5.982-1.598-7.768-4.1-2.015-2.755-2.45-6.54-1.309-9.756 1.143-3.28 4.134-5.782 7.52-6.371zm.624 3.995a5.671 5.671 0 0 0-2.908 1.85c-1.994 2.397-1.911 6.308.228 8.6 1.267 1.366 3.24 2.04 5.068 1.66 1.62-.315 3.074-1.408 3.863-2.88 1.35-2.523.956-5.971-1.163-7.927-1.35-1.261-3.323-1.766-5.088-1.303z" fill="#FCBD06"/>
    <path d="M81.088 12.72c2.389-1.513 5.567-1.934 8.142-.63.81.357 1.475.967 2.119 1.577.02-.568 0-1.157.02-1.745 1.392.02 2.784 0 4.196.02v18.545c-.02 2.797-.727 5.761-2.72 7.8-2.182 2.25-5.526 2.944-8.537 2.482-3.22-.484-6.024-2.86-7.27-5.866 1.246-.61 2.555-1.094 3.842-1.661.727 1.724 2.202 3.195 4.05 3.532 1.85.336 3.989-.126 5.193-1.682 1.288-1.598 1.288-3.785 1.226-5.74-.956.946-2.057 1.787-3.386 2.102-2.887.82-6.065-.189-8.287-2.165-2.244-1.977-3.573-5.025-3.448-8.053.062-3.427 1.973-6.728 4.86-8.515zm4.3 2.692c-1.267.21-2.451.925-3.261 1.913-1.953 2.355-1.953 6.119.02 8.431 1.122 1.367 2.929 2.124 4.674 1.935 1.64-.168 3.157-1.22 3.967-2.67 1.37-2.46 1.142-5.804-.706-7.948-1.143-1.325-2.97-1.977-4.694-1.661z" fill="#3780FF"/>
    <path d="M108.526 13.793c2.492-2.355 6.335-3.154 9.534-1.914 3.032 1.157 4.964 4.08 5.94 7.086-4.507 1.892-8.994 3.764-13.5 5.656.622 1.198 1.578 2.292 2.865 2.733 1.808.652 3.968.42 5.484-.799.602-.462 1.08-1.072 1.537-1.66 1.142.777 2.285 1.534 3.427 2.312-1.62 2.46-4.341 4.184-7.27 4.458-3.24.4-6.688-.862-8.786-3.428-3.447-4.036-3.115-10.807.769-14.444zm2.222 3.89c-.706 1.03-.997 2.291-.976 3.532a1653.44 1653.44 0 0 0 9.035-3.806c-.498-1.177-1.703-1.892-2.928-2.081-1.973-.358-4.03.715-5.13 2.355z" fill="#FA3913"/>
  </g>
</svg>