<svg xmlns="http://www.w3.org/2000/svg" width="95px" height="95px" viewBox="0 0 95 95" data-arp-injected="true">
  <g fill-rule="nonzero" fill="none">
    <path d="M93.859 50.604a3.83 3.83 0 0 0 0-5.417L49.826 1.155a3.83 3.83 0 0 0-5.417 0L1.155 44.409a3.83 3.83 0 0 0 0 5.417L45.187 93.86a3.83 3.83 0 0 0 5.417 0L93.86 50.604z" fill="#FFF"/>
    <path d="M46.538 46.761L25.47 67.829a2.874 2.874 0 0 1-4.064 0L2.913 49.334a2.874 2.874 0 0 1 0-4.063L23.98 24.203l22.557 22.558zm-21.2-23.915L44.991 3.193a2.873 2.873 0 0 1 4.063 0l18.494 18.494a2.874 2.874 0 0 1 0 4.063L47.895 45.403 25.338 22.846z" fill="#C23C40"/>
    <path d="M92.104 50.316a2.873 2.873 0 0 0 0-4.063l-19.109-19.11a2.873 2.873 0 0 0-4.063 0L26.83 69.246a2.873 2.873 0 0 0 0 4.063l19.11 19.11a2.873 2.873 0 0 0 4.062 0l42.102-42.103z" fill="#0077A6"/>
    <path d="M29.752 72.099l2.24-2.24c2.03-2.031 4.701-2.475 7.48.304 2.247 2.247 2.403 4.94.63 6.714l-2.786 2.785-7.564-7.563zm7.496 3.097l.136-.136c.731-.731.871-1.714-.122-2.707-1.063-1.064-2.004-1.025-2.807-.222l-.136.136 2.93 2.93zm8.883-9.545c1.766 1.766 1.466 3.971.134 5.303-1.332 1.333-3.538 1.632-5.303-.134-1.866-1.866-1.67-4.029-.264-5.433 1.404-1.405 3.566-1.602 5.433.264zm-3.203 3.122c.422.422.99.476 1.31.155.322-.321.267-.89-.154-1.31-.431-.432-1.015-.55-1.36-.205-.346.345-.227.93.204 1.36zm4.04-7.531l.065-.064c-.483-.821-.373-1.754.173-2.3.61-.61 1.447-.624 2.353-.086l.05-.048c-.502-.984-.501-1.767.157-2.426 1.02-1.02 2.453-.485 3.606.668l3.311 3.31-2.007 2.007-2.639-2.639c-.31-.31-.712-.712-1.016-.407-.298.297.103.698.415 1.01l2.638 2.638-2.006 2.007-2.64-2.639c-.31-.31-.711-.712-1.017-.407-.296.297.105.698.416 1.009l2.638 2.638-2.005 2.007-5.328-5.326 1.959-1.959.878 1.007zm5.367-7.252l2.07-2.07 5.327 5.326-2.07 2.07-5.327-5.326zm.53-3.82c.873.872.709 1.8.114 2.393-.594.595-1.52.76-2.393-.114-.774-.772-.754-1.733-.104-2.383.65-.65 1.61-.669 2.383.104zm5.274-.279l.048-.048c-.18-.983-.266-1.678.4-2.346 1.059-1.06 2.47-.483 3.643.69l3.28 3.28-2.07 2.071-2.599-2.598c-.311-.311-.753-.753-1.106-.4-.345.346.097.788.407 1.098l2.598 2.599-2.07 2.07-5.326-5.326 2.023-2.023.772.933zm10.624-6.872c1.766 1.766 1.466 3.971.134 5.303-1.333 1.333-3.537 1.632-5.303-.134-1.866-1.866-1.669-4.029-.264-5.434 1.404-1.404 3.567-1.6 5.433.265zm-3.203 3.123c.422.421.99.475 1.31.154.322-.32.268-.889-.153-1.31-.432-.431-1.016-.55-1.36-.205-.347.346-.229.93.203 1.36zm2.13-5.47l-2.872-4.59 2.08-2.077 2.228 5.23-1.437 1.437zm4.507-.043l.228-.03c.51-.067 1.199-.214 1.551-.567.137-.136.215-.395.015-.596-.292-.291-.551-.052-.75.086-.81.57-1.803.861-2.806-.142-1.334-1.334-.79-2.941.124-3.856.53-.53 1.319-1.058 2.105-1.202l.968 1.98c-.505.024-1.059.176-1.396.513-.128.129-.246.348-.056.538.26.261.506.056.855-.172.889-.588 1.812-.87 2.885.203 1.384 1.384.857 3.057-.107 4.02-.674.674-1.593 1.071-2.541 1.358l-1.075-2.133zM40.068 82.208l2.785-2.785c1.413-1.413 3.36-1.554 5.235.322 1.545 1.545 1.737 3.279.509 4.507l-1.123 1.124 2.276 2.277-2.118 2.12-7.564-7.565zm5.5 1.261l.217-.216c.385-.386.722-.884.11-1.495-.592-.592-1.07-.173-1.432.189l-.209.208 1.314 1.314zm2.78-5.067l2.07-2.07 5.327 5.326-2.07 2.071-5.327-5.327zm.53-3.82c.872.873.708 1.8.114 2.394-.595.594-1.521.758-2.394-.114-.773-.772-.754-1.734-.104-2.384.65-.65 1.611-.668 2.384.104zm8.184.402l.232 1.114.06.06.365-.486 1.18-1.18 2.006 2.006-4.496 4.495-.36-.36-1.127-3.648-.177-1.028-.04-.04-.404.544-1.002 1.003-2.007-2.006 4.39-4.39.301.3 1.08 3.616zm4.857-4.856l.23 1.114.06.06.366-.486 1.18-1.18 2.005 2.006-4.493 4.496-.362-.362-1.127-3.647-.176-1.028-.04-.04-.405.544-1.002 1.004-2.007-2.007 4.39-4.39.301.3 1.08 3.616zm6.937-2.984l-.05.048c.125.88.11 1.537-.476 2.123-1.157 1.156-3.264.334-4.558-.96-1.343-1.344-2.158-3.459-.954-4.663.514-.514 1.17-.709 1.996-.492l.048-.048-.695-.568 2.03-2.031 5.326 5.327-2.03 2.03-.637-.766zm-1.758-.65c.393-.394.163-.945-.248-1.357-.412-.412-.937-.487-1.267-.158-.33.329-.197.878.194 1.27.422.422.943.622 1.32.245z" fill="#FFF"/>
    <path d="M56.704 89.653c1.131 0 2.14.814 2.14 2.08 0 1.27-1.009 2.09-2.14 2.09-1.133 0-2.141-.82-2.141-2.09 0-1.266 1.009-2.08 2.14-2.08zm0 3.723c.863 0 1.57-.69 1.57-1.644 0-.948-.708-1.633-1.57-1.633-.876 0-1.572.686-1.572 1.633 0 .953.696 1.644 1.572 1.644zm-.832-2.814h.881c.586 0 .915.183.915.69 0 .43-.268.597-.614.625l.624 1.02h-.485l-.568-.998h-.29v.998h-.463v-2.335zm.464.975h.413c.261 0 .457-.039.457-.323 0-.251-.268-.29-.48-.29h-.39v.613z" fill="#000"/>
    <path d="M19.415 51.8a5.374 5.374 0 0 0 0-7.6 5.374 5.374 0 1 0-7.601 7.6c2.1 2.1 5.502 2.1 7.601 0zm16.145 0a5.375 5.375 0 1 0-7.602-7.6 5.375 5.375 0 0 0 7.602 7.6zm15.635-24.598a5.375 5.375 0 1 0-7.6-7.602 5.375 5.375 0 0 0 7.6 7.602z" fill="#FFF"/>
  </g>
</svg>