<?xml version="1.0" encoding="utf-8"?>
<!-- Generator: Adobe Illustrator 25.2.3, SVG Export Plug-In . SVG Version: 6.00 Build 0)  -->
<svg version="1.1" id="Layer_1" xmlns="http://www.w3.org/2000/svg" xmlns:xlink="http://www.w3.org/1999/xlink" x="0px" y="0px"
	 viewBox="0 0 2000 2000" style="enable-background:new 0 0 2000 2000;" xml:space="preserve">
<style type="text/css">
	.st0{fill:none;}
	.st1{fill:url(#SVGID_1_);}
	.st2{fill:#FCC826;}
	.st3{fill:url(#SVGID_2_);}
	.st4{fill:url(#SVGID_3_);}
	.st5{fill:url(#SVGID_4_);}
	.st6{fill:url(#SVGID_5_);}
	.st7{fill:url(#SVGID_6_);}
	.st8{fill:url(#SVGID_7_);}
	.st9{fill:url(#SVGID_8_);}
	.st10{fill:url(#SVGID_9_);}
	.st11{fill:url(#SVGID_10_);}
	.st12{fill:url(#SVGID_11_);}
	.st13{fill:url(#SVGID_12_);}
	.st14{fill:#4CC4FF;}
	.st15{fill:#FFD832;}
</style>
<rect width="2000" height="2000"/>
<path class="st0" d="M361.16,1092.69c-0.91,0.82-2.04,1.4-3.07,2.1C359.11,1094.09,360.25,1093.51,361.16,1092.69L361.16,1092.69z"
	/>
<path class="st0" d="M378.71,1074.38c-0.57,0.83-1.02,1.77-1.71,2.47C377.69,1076.14,378.15,1075.2,378.71,1074.38z"/>
<path class="st0" d="M361.37,1092.51c-0.07,0.07-0.14,0.12-0.21,0.18l0,0C361.23,1092.63,361.3,1092.58,361.37,1092.51z"/>
<path class="st0" d="M347.37,1106.35c-0.15,0.2-0.31,0.39-0.48,0.57c-2.52,2.55-5.05,5.08-7.58,7.62l0.02-0.02
	c2.53-2.53,5.05-5.06,7.56-7.6C347.06,1106.74,347.22,1106.55,347.37,1106.35z"/>
<path class="st0" d="M329.77,1124c-0.17,0.17-0.37,0.33-0.57,0.47C329.41,1124.33,329.6,1124.17,329.77,1124
	c2.6-2.57,5.2-5.15,7.79-7.73l0.02-0.02C334.99,1118.84,332.39,1121.43,329.77,1124z"/>
<path class="st0" d="M361.37,1092.51c4.72-4.65,9.39-9.35,14.04-14.06l0,0C370.76,1083.17,366.09,1087.86,361.37,1092.51z"/>
<path class="st0" d="M337.58,1116.25l-0.02,0.02c0.59-0.59,1.18-1.17,1.76-1.76l-0.02,0.02
	C338.73,1115.11,338.16,1115.68,337.58,1116.25z"/>
<path class="st0" d="M377,1076.84c-0.53,0.54-1.06,1.07-1.59,1.6l0,0C375.94,1077.91,376.47,1077.38,377,1076.84z"/>
<linearGradient id="SVGID_1_" gradientUnits="userSpaceOnUse" x1="338.4419" y1="856.907" x2="338.4419" y2="1273.2899">
	<stop  offset="0" style="stop-color:#4CC4FF"/>
	<stop  offset="0.9944" style="stop-color:#BE34FF"/>
</linearGradient>
<path class="st1" d="M339.3,1114.53l-1.72,1.72C338.16,1115.68,338.73,1115.11,339.3,1114.53z"/>
<path class="st2" d="M329.77,1124c-0.17,0.17-0.37,0.33-0.57,0.47C329.41,1124.33,329.6,1124.17,329.77,1124
	c2.61-2.57,5.21-5.16,7.81-7.75l1.72-1.72c2.53-2.53,5.06-5.07,7.58-7.62c0.17-0.18,0.33-0.37,0.48-0.57
	c-0.15,0.2-0.31,0.39-0.48,0.57c-2.51,2.54-5.03,5.07-7.56,7.6l9.8-9.8c-0.18-0.09-0.35-0.2-0.54-0.28
	c-0.14,0.21-0.28,0.42-0.41,0.64c0.13-0.22,0.27-0.43,0.41-0.64c-1.24-1.59-2.4-3.25-3.74-4.76c-5.63-6.35-10.88-12.98-15.52-20.09
	c-12.45-19.05-20.09-39.78-22.56-62.47c-1.25-11.54-1.06-22.97,0.17-34.48c1.49-13.93,4.91-27.3,10.34-40.19
	c6.11-14.5,14.59-27.48,24.86-39.36c2.2-2.54,4.98-4.63,6.3-7.88c0.32-0.07,0.62-0.18,0.91-0.31l-21.84-20.99
	c-0.04,0.13-0.09,0.25-0.13,0.38c-1.56,1.27-3.28,2.38-4.63,3.84c-11.79,12.76-21.79,26.8-29.61,42.33
	c-8.75,17.39-14.33,35.74-16.85,55.09c-2.47,18.98-2.37,37.92,1.1,56.68c6.12,33.08,20.69,62.14,43.2,87.17
	c2.02,2.24,4.41,4.15,6.63,6.21c0.35-0.22,0.72-0.41,1.09-0.62c-0.37,0.2-0.74,0.4-1.09,0.62c0.14,0.18,0.28,0.37,0.42,0.56
	l9.91-9.9C334.97,1118.85,332.38,1121.43,329.77,1124z"/>
<linearGradient id="SVGID_2_" gradientUnits="userSpaceOnUse" x1="452.8466" y1="856.907" x2="452.8466" y2="1273.2899">
	<stop  offset="0" style="stop-color:#4CC4FF"/>
	<stop  offset="0.9944" style="stop-color:#BE34FF"/>
</linearGradient>
<path class="st3" d="M353.42,891.8c4.45-3.67,8.79-7.48,13.41-10.92c15.72-11.7,33.15-19.87,52.21-24.35
	c18.39-4.32,37.09-4.52,55.67-1.97c24.65,3.38,47.11,12.55,66.76,28.06c4.52,3.57,8.83,7.41,13.24,11.12
	c1.08,0.91,2.26,1.45,4.25,0.97c6.34-5.89,13.02-12.11,18.89-19.15c0.36-0.43,0.23-1.28,0.32-1.93c-0.33-0.59-0.55-1.3-1.02-1.74
	c-2.47-2.32-4.98-4.6-7.52-6.83c-15.72-13.78-33.3-24.46-52.87-31.9c-15.97-6.07-32.46-9.94-49.45-11.12
	c-13.87-0.97-27.76-0.78-41.61,1.51c-16.18,2.67-31.72,7.17-46.67,13.83c-17.85,7.96-33.57,19.1-48.05,32.1
	c-1.41,1.27-2.82,2.57-3.46,4.44l21.84,20.99C350.95,894.21,352.1,892.89,353.42,891.8z"/>
<linearGradient id="SVGID_3_" gradientUnits="userSpaceOnUse" x1="452.8401" y1="1078.4117" x2="452.8401" y2="1249.0138">
	<stop  offset="0" style="stop-color:#4CC4FF"/>
	<stop  offset="0.9944" style="stop-color:#BE34FF"/>
</linearGradient>
<path class="st4" d="M487.52,1175.05c33.04-6.7,61.96-21.56,86.82-44.33c1.48-1.35,3.11-2.64,3.69-4.93
	c-0.43-0.75-0.77-1.78-1.45-2.46c-5.73-5.79-11.49-11.54-17.32-17.23c-0.64-0.63-1.75-0.78-2.91-1.27c-2.08,1.78-4.12,3.53-6.16,5.3
	c-13.72,11.87-28.89,21.35-45.92,27.74c-28.55,10.7-57.69,11.38-87.12,4.67c-22.97-5.23-42.98-16.33-60.73-31.69
	c-2.39-2.07-4.39-4.65-7.27-6.14l-9.8,9.8c-0.59,0.59-1.18,1.18-1.76,1.76l-9.91,9.9c0.87,1.16,1.67,2.39,2.72,3.36
	c12,11.11,25.08,20.74,39.57,28.41c18.8,9.95,38.77,16.16,59.85,18.82C449.12,1179.2,468.4,1178.93,487.52,1175.05z"/>
<linearGradient id="SVGID_4_" gradientUnits="userSpaceOnUse" x1="531.2929" y1="1078.4117" x2="531.2929" y2="1249.0138">
	<stop  offset="0" style="stop-color:#4CC4FF"/>
	<stop  offset="0.9944" style="stop-color:#BE34FF"/>
</linearGradient>
<path class="st5" d="M589.22,1136.6c-2.73,0.01-4.05,2.21-5.73,3.78c-16,14.95-34.09,26.73-54.16,35.43
	c-19.42,8.42-39.67,13.64-60.84,15.08c-3.72,0.25-7.44,0.43-11.15,0.78c-1.29,0.12-2.53,0.64-4.02,1.04
	c-1.26,8.64-0.45,17.08-0.56,25.48c-0.02,1.28,0.51,2.56,0.74,3.59c3.22,1.83,6.34,1.32,9.29,1.07c8.1-0.69,16.22-1.33,24.24-2.62
	c46.14-7.42,86.21-27.25,120.17-59.39c0.95-0.89,1.66-2.04,2.8-3.47C603.47,1149.81,595.29,1141.67,589.22,1136.6z"/>
<linearGradient id="SVGID_5_" gradientUnits="userSpaceOnUse" x1="303.7101" y1="856.907" x2="303.7101" y2="1273.2899">
	<stop  offset="0" style="stop-color:#4CC4FF"/>
	<stop  offset="0.9944" style="stop-color:#BE34FF"/>
</linearGradient>
<path class="st6" d="M295.86,843.46l15.71,15.1C306.74,853.32,300.79,847.57,295.86,843.46z"/>
<linearGradient id="SVGID_6_" gradientUnits="userSpaceOnUse" x1="306.5231" y1="856.907" x2="306.5231" y2="1273.2899">
	<stop  offset="0" style="stop-color:#4CC4FF"/>
	<stop  offset="0.9944" style="stop-color:#BE34FF"/>
</linearGradient>
<path class="st7" d="M316.02,1137.8l-18.99,18.98C303.55,1150.91,309.9,1144.47,316.02,1137.8z"/>
<path class="st2" d="M316.69,1135.8c-0.14-0.31-0.22-0.67-0.43-0.92c-2.21-2.57-4.45-5.11-6.68-7.66
	c-18.1-20.68-31.8-43.87-39.99-70.2c-4.45-14.32-6.84-28.99-7.98-43.94c-1.09-14.3-0.52-28.55,1.69-42.63
	c5.88-37.49,21.6-70.43,46.92-98.75c1.58-1.77,3.28-3.44,4.78-5.28c0.59-0.73,0.78-1.8,1.12-2.63c-1.32-1.62-2.87-3.4-4.56-5.23
	l-15.71-15.1c-0.82,0.36-1.95,0.52-2.57,1.17c-3.3,3.41-6.59,6.85-9.66,10.46c-35.74,42.02-52.78,90.96-53.99,145.8
	c-0.17,7.86,1.05,15.54,1.87,23.29c2.5,23.82,8.84,46.58,18.73,68.37c10.33,22.77,24.44,42.99,41.55,61.16
	c1.32,1.41,2.52,3.21,5.25,3.06l18.99-18.98c0.06-0.07,0.12-0.13,0.19-0.2C316.58,1137.19,316.54,1136.41,316.69,1135.8z"/>
<linearGradient id="SVGID_7_" gradientUnits="userSpaceOnUse" x1="531.3712" y1="856.907" x2="531.3712" y2="1273.2899">
	<stop  offset="0" style="stop-color:#4CC4FF"/>
	<stop  offset="0.9944" style="stop-color:#BE34FF"/>
</linearGradient>
<path class="st8" d="M453.16,806.42c2.03,1.97,4.1,1.92,6.12,2c9.48,0.38,18.91,1.01,28.27,2.81c25.25,4.87,48.71,14.1,70.27,28.14
	c9.96,6.49,19.23,13.85,27.76,22.14c1.19,1.16,2.36,2.45,4.28,2.24c4.45-3.49,14.8-13.31,19.03-18.19c0.63-0.72,0.88-1.76,1.42-2.89
	c-0.79-1.05-1.47-2.24-2.42-3.15c-1.95-1.88-4.06-3.59-6.07-5.4c-19.02-17.19-40.24-30.95-64.07-40.49
	c-14.48-5.8-29.27-10.64-44.79-12.89c-6.03-0.88-12.09-1.58-18.05-2.76c-6.05-1.19-12.11-1.2-18.21-0.99
	c-0.95,0.03-1.89,0.51-3.17,0.87c-0.29,1.23-0.86,2.51-0.84,3.78C452.83,790.04,451.8,798.48,453.16,806.42z"/>
<linearGradient id="SVGID_8_" gradientUnits="userSpaceOnUse" x1="406.077" y1="856.907" x2="406.077" y2="1273.2899">
	<stop  offset="0" style="stop-color:#4CC4FF"/>
	<stop  offset="0.9944" style="stop-color:#BE34FF"/>
</linearGradient>
<path class="st9" d="M388.82,917.44c15.03-11.73,31.89-19.01,50.92-21.08c3.37-0.37,6.73-0.77,10.08-1.28
	c0.94-0.14,1.82-0.72,2.73-1.11c0.28-1.09,0.75-2.06,0.75-3.03c0.05-7.45,0.06-14.9-0.04-22.35c-0.01-0.92-0.7-1.83-0.94-2.39
	c-1.74-1.46-3.46-1.29-5.13-1.26c-7.48,0.14-14.83,1.39-22.13,2.88c-24.51,5.01-45.66,16.6-64.14,33.25
	c-0.87,0.78-1.48,1.85-2.1,2.9l21.14,20.31C382.91,922.01,385.87,919.74,388.82,917.44z"/>
<linearGradient id="SVGID_9_" gradientUnits="userSpaceOnUse" x1="368.2839" y1="856.907" x2="368.2839" y2="1273.2899">
	<stop  offset="0" style="stop-color:#4CC4FF"/>
	<stop  offset="0.9944" style="stop-color:#BE34FF"/>
</linearGradient>
<path class="st10" d="M375.41,1078.45l-14.25,14.24c0.07-0.06,0.15-0.12,0.21-0.18C366.09,1087.86,370.76,1083.17,375.41,1078.45z"
	/>
<path class="st2" d="M355.59,906.85c-31.41,33.78-42.85,73.56-34.93,118.8c4.24,24.2,15.33,45.29,31.53,63.7
	c1.76,2,3.93,3.63,5.91,5.44c1.02-0.7,2.16-1.28,3.07-2.1l14.25-14.24c0.53-0.54,1.06-1.07,1.59-1.6c0.69-0.7,1.15-1.64,1.71-2.47
	c-3.11-3.99-6.26-7.96-9.33-11.99c-20.05-26.29-25.16-55.71-18.05-87.55c3.46-15.5,10.79-29.16,20.83-41.41
	c2.13-2.6,4.17-5.29,6.25-7.93c0.52-0.4,1.03-0.8,1.55-1.2l-21.14-20.31c-0.24,0.41-0.49,0.81-0.75,1.2
	C357.23,905.73,356.25,906.14,355.59,906.85z"/>
<linearGradient id="SVGID_10_" gradientUnits="userSpaceOnUse" x1="377.2793" y1="856.907" x2="377.2793" y2="1273.2899">
	<stop  offset="0" style="stop-color:#4CC4FF"/>
	<stop  offset="0.9944" style="stop-color:#BE34FF"/>
</linearGradient>
<path class="st11" d="M375.41,1078.45l3.74-3.73c-0.14-0.11-0.29-0.23-0.44-0.34c-0.57,0.83-1.02,1.77-1.71,2.47
	C376.47,1077.38,375.94,1077.91,375.41,1078.45z"/>
<linearGradient id="SVGID_11_" gradientUnits="userSpaceOnUse" x1="405.9207" y1="1078.4117" x2="405.9207" y2="1249.0138">
	<stop  offset="0" style="stop-color:#4CC4FF"/>
	<stop  offset="0.9944" style="stop-color:#BE34FF"/>
</linearGradient>
<path class="st12" d="M361.37,1092.51c-0.07,0.07-0.14,0.12-0.21,0.18l-2.66,2.66c0.84,1.18,1.62,2.44,2.67,3.4
	c23.97,21.77,52.1,33.81,84.44,35.91c1.99,0.13,4.01-0.12,5.77-0.18c0.66-0.83,1.07-1.35,1.7-2.13c0.44-7.86,0.3-15.99,0.09-24.11
	c-0.04-1.43-0.67-2.58-2.4-3.51c-2.58-0.25-5.62-0.5-8.64-0.84c-21.14-2.33-39.96-10.11-56.27-23.86c-2.18-1.84-4.46-3.55-6.7-5.32
	l-3.74,3.73C370.76,1083.16,366.09,1087.86,361.37,1092.51z"/>
<linearGradient id="SVGID_12_" gradientUnits="userSpaceOnUse" x1="359.6241" y1="856.907" x2="359.6241" y2="1273.2899">
	<stop  offset="0" style="stop-color:#4CC4FF"/>
	<stop  offset="0.9944" style="stop-color:#BE34FF"/>
</linearGradient>
<path class="st13" d="M358.09,1094.79c0.14,0.18,0.27,0.37,0.4,0.56l2.66-2.66C360.25,1093.51,359.11,1094.09,358.09,1094.79z"/>
<path class="st14" d="M691.87,1018.77c-7.12-12.47-23.15-20.35-39.94-20.35c-36.64-0.25-65.39,22.39-65.39,65.64
	c0,44.01,27.48,66.91,64.62,66.66c13.99-0.25,33.58-7.38,40.71-22.13l1.53,18.32h29.26v-125.43h-29.77L691.87,1018.77z
	 M654.72,1102.22c-20.61,0-37.14-14.25-37.14-38.16c0-23.92,16.54-37.91,37.14-37.91C703.57,1026.15,703.57,1102.22,654.72,1102.22z
	"/>
<path class="st14" d="M820.6,998.67c-14.25,0-31.04,6.11-40.71,20.1l-2.04-17.3h-29v177.84h31.04v-67.17
	c8.9,13.74,28.49,17.81,41.72,17.81c40.2,0,63.35-29,63.35-65.64C884.97,1027.42,859.27,998.67,820.6,998.67z M818.31,1099.93
	c-21.12,0-35.62-16.03-35.62-35.62c0-19.59,13.23-35.62,35.62-35.62s35.62,16.03,35.62,35.62
	C853.93,1083.9,839.43,1099.93,818.31,1099.93z"/>
<path class="st14" d="M967.65,1100.44c-9.67,0-16.28-5.85-16.28-17.81v-54.19h34.85v-26.71h-34.6V966.1l-31.04,3.31v32.31h-23.41
	v26.71h23.41v54.19c0,31.29,17.81,46.81,45.03,45.8c9.41-0.25,16.79-1.78,25.7-5.34l-8.65-26.46
	C978.08,1098.91,972.49,1100.44,967.65,1100.44z"/>
<rect x="1009.37" y="1000.96" class="st14" width="31.04" height="125.94"/>
<path class="st14" d="M1006.58,966.1c0,24.17,36.64,24.17,36.64,0S1006.58,941.93,1006.58,966.1z"/>
<path class="st14" d="M1078.58,994.85v8.4h-23.41v27.22h23.41v96.42h31.04v-96.42h36.89v-27.22h-36.89v-8.4
	c0-15.27,8.14-22.39,18.83-22.39c6.36,0,12.47,2.29,19.08,6.61l11.45-23.15c-10.18-6.61-21.63-10.18-32.57-10.18
	C1101.22,945.75,1078.58,961.27,1078.58,994.85z"/>
<polygon class="st14" points="1240.13,1056.42 1227.15,1091.02 1215.2,1055.66 1196.12,1001.47 1159.99,1001.47 1210.11,1124.86 
	1186.7,1179.31 1220.79,1179.31 1297.37,1001.47 1263.03,1001.47 "/>
<path class="st15" d="M1312.89,1110.87c0,24.17,36.64,24.17,36.64,0C1349.53,1086.7,1312.89,1086.7,1312.89,1110.87z"/>
<rect x="1383.36" y="949.06" class="st15" width="30.78" height="177.84"/>
<rect x="1441.37" y="1000.96" class="st15" width="31.04" height="125.94"/>
<path class="st15" d="M1438.57,966.1c0,24.17,36.64,24.17,36.64,0S1438.57,941.93,1438.57,966.1z"/>
<polygon class="st15" points="1579.26,1043.19 1560.18,1095.6 1540.84,1042.68 1523.54,1001.21 1489.71,1001.21 1543.39,1127.4 
	1576.97,1127.4 1630.4,1001.21 1596.56,1001.21 "/>
<path class="st15" d="M1706.47,997.65c-40.71,0-66.66,27.48-66.66,65.64c0,40.2,25.7,66.91,68.95,66.91
	c19.08,0,40.71-6.61,53.94-20.35l-19.84-19.59c-7.12,7.38-22.13,11.7-33.58,11.7c-21.88,0-35.36-11.19-37.4-26.71h97.95
	C1774.65,1023.6,1748.45,997.65,1706.47,997.65z M1672.38,1049.55c4.58-16.28,18.32-24.42,35.11-24.42
	c17.81,0,30.53,8.14,32.57,24.42H1672.38z"/>
</svg>
