<svg id="visual" viewBox="0 0 900 600" width="900" height="600" xmlns="http://www.w3.org/2000/svg" xmlns:xlink="http://www.w3.org/1999/xlink" version="1.1"><path d="M0 127L75 124C150 121 300 115 450 114C600 113 750 117 825 119L900 121L900 0L825 0C750 0 600 0 450 0C300 0 150 0 75 0L0 0Z" fill="#edf4fd"></path><path d="M0 421L75 411C150 401 300 381 450 364C600 347 750 333 825 326L900 319L900 119L825 117C750 115 600 111 450 112C300 113 150 119 75 122L0 125Z" fill="#f6f9fe"></path><path d="M0 601L75 601C150 601 300 601 450 601C600 601 750 601 825 601L900 601L900 317L825 324C750 331 600 345 450 362C300 379 150 399 75 409L0 419Z" fill="#ffffff"></path></svg>