<svg width="80" height="80" viewBox="0 0 80 80" fill="none" xmlns="http://www.w3.org/2000/svg">
<g clip-path="url(#clip0_693_2378)">
<rect width="80" height="80" rx="16" fill="url(#paint0_linear_693_2378)"/>
<g clip-path="url(#clip1_693_2378)">
<path d="M26.9229 24.2385C26.9229 22.974 27.1912 21.8492 27.728 20.8643C28.2773 19.8673 29.0512 19.0951 30.0499 18.548C31.0485 17.9886 32.1969 17.709 33.4952 17.709C35.1429 17.709 36.5286 18.1406 37.652 19.004C38.3029 19.4971 38.8198 20.0943 39.2025 20.7956C39.6474 21.6108 38.9442 22.4876 38.0156 22.4876H36.7812C36.2256 22.4876 35.7467 22.1409 35.3551 21.7469C35.2127 21.6035 35.0546 21.4796 34.8808 21.375C34.4688 21.1197 33.9883 20.992 33.439 20.992C32.5902 20.992 31.9098 21.2899 31.398 21.8857C30.8987 22.4694 30.649 23.2536 30.649 24.2385C30.649 25.2356 30.8987 26.032 31.398 26.6278C31.9098 27.2115 32.5902 27.5033 33.439 27.5033C33.9883 27.5033 34.4688 27.3756 34.8808 27.1203C35.0546 27.0157 35.2127 26.8918 35.3551 26.7485C35.7467 26.3544 36.2256 26.0077 36.7812 26.0077H38.0156C38.9442 26.0077 39.6469 26.8842 39.2039 27.7003C38.821 28.4057 38.3037 29.0088 37.652 29.5096C36.5286 30.3608 35.1429 30.7863 33.4952 30.7863C32.1969 30.7863 31.0485 30.5128 30.0499 29.9656C29.0512 29.4063 28.2773 28.6341 27.728 27.6492C27.1912 26.6522 26.9229 25.5153 26.9229 24.2385Z" fill="white"/>
<path d="M40.1763 24.2385C40.1763 22.974 40.4447 21.8492 40.9815 20.8643C41.5307 19.8673 42.3047 19.0951 43.3033 18.548C44.302 17.9886 45.4504 17.709 46.7486 17.709C48.3964 17.709 49.782 18.1406 50.9055 19.004C51.798 19.6801 52.4384 20.5519 52.8267 21.6194C52.9854 22.0557 52.6376 22.4876 52.1733 22.4876H50.0347C49.4791 22.4876 49.0002 22.1409 48.6086 21.7469C48.4662 21.6035 48.3081 21.4796 48.1343 21.375C47.7223 21.1197 47.2417 20.992 46.6925 20.992C45.8436 20.992 45.1633 21.2899 44.6515 21.8857C44.1522 22.4694 43.9025 23.2536 43.9025 24.2385C43.9025 25.2356 44.1522 26.032 44.6515 26.6278C45.1633 27.2115 45.8436 27.5033 46.6925 27.5033C47.2417 27.5033 47.7223 27.3756 48.1343 27.1203C48.3081 27.0157 48.4662 26.8918 48.6086 26.7485C49.0002 26.3544 49.4791 26.0077 50.0347 26.0077H52.1733C52.6376 26.0077 52.9854 26.4395 52.8269 26.876C52.4387 27.9458 51.7982 28.8237 50.9055 29.5096C49.782 30.3608 48.3964 30.7863 46.7486 30.7863C45.4504 30.7863 44.302 30.5128 43.3033 29.9656C42.3047 29.4063 41.5307 28.6341 40.9815 27.6492C40.4447 26.6522 40.1763 25.5153 40.1763 24.2385Z" fill="white"/>
</g>
<path fill-rule="evenodd" clip-rule="evenodd" d="M16.5388 39.6016C14.8395 39.6016 13.4619 40.9791 13.4619 42.6785C13.4619 44.3778 14.8395 45.7554 16.5388 45.7554H28.8465C30.5459 45.7554 31.9235 44.3778 31.9235 42.6785C31.9235 40.9791 30.5459 39.6016 28.8465 39.6016H16.5388ZM37.3081 39.6016C35.6087 39.6016 34.2311 40.9791 34.2311 42.6785C34.2311 44.3778 35.6087 45.7554 37.3081 45.7554H63.4619C65.1613 45.7554 66.5388 44.3778 66.5388 42.6785C66.5388 40.9791 65.1613 39.6016 63.4619 39.6016H37.3081ZM13.4619 51.14C13.4619 49.4407 14.8395 48.0631 16.5388 48.0631H40.385C42.0843 48.0631 43.4619 49.4407 43.4619 51.14C43.4619 52.8394 42.0843 54.2169 40.385 54.2169H16.5388C14.8395 54.2169 13.4619 52.8394 13.4619 51.14ZM48.8465 48.0631C47.1472 48.0631 45.7696 49.4407 45.7696 51.14C45.7696 52.8394 47.1472 54.2169 48.8465 54.2169H63.4619C65.1612 54.2169 66.5388 52.8394 66.5388 51.14C66.5388 49.4407 65.1612 48.0631 63.4619 48.0631H48.8465ZM13.4619 59.6016C13.4619 57.9022 14.8395 56.5246 16.5388 56.5246H28.8465C30.5459 56.5246 31.9235 57.9022 31.9235 59.6016C31.9235 61.3009 30.5459 62.6785 28.8465 62.6785H16.5388C14.8395 62.6785 13.4619 61.3009 13.4619 59.6016ZM37.3081 56.5246C35.6087 56.5246 34.2311 57.9022 34.2311 59.6016C34.2311 61.3009 35.6087 62.6785 37.3081 62.6785H40.385C42.0843 62.6785 43.4619 61.3009 43.4619 59.6016C43.4619 57.9022 42.0843 56.5246 40.385 56.5246H37.3081Z" fill="url(#paint1_linear_693_2378)"/>
</g>
<defs>
<linearGradient id="paint0_linear_693_2378" x1="40" y1="0" x2="40" y2="80" gradientUnits="userSpaceOnUse">
<stop stop-color="#8E99AE"/>
<stop offset="1" stop-color="#7F848D" stop-opacity="0.56"/>
</linearGradient>
<linearGradient id="paint1_linear_693_2378" x1="40.0004" y1="39.6016" x2="40.0152" y2="69.863" gradientUnits="userSpaceOnUse">
<stop stop-color="#F1F1F1"/>
<stop offset="1" stop-color="#D4D4D4" stop-opacity="0.26"/>
</linearGradient>
<clipPath id="clip0_693_2378">
<rect width="80" height="80" rx="24" fill="white"/>
</clipPath>
<clipPath id="clip1_693_2378">
<rect width="26.1547" height="26.1547" fill="white" transform="translate(26.9229 11.1699)"/>
</clipPath>
</defs>
</svg>
