<svg xmlns="http://www.w3.org/2000/svg" width="80" height="80" viewBox="0 0 80 80" fill="none" data-arp-injected="true">
<rect width="80" height="80" rx="24" fill="#0f83d1"/>
<path opacity="0.6" fill-rule="evenodd" clip-rule="evenodd" d="M39.965 12.0004L40.0108 12.0005C40.0378 11.9998 40.0648 11.9998 40.0918 12.0005C40.1287 11.9996 40.1655 11.9999 40.2021 12.0014C55.4524 12.1282 67.793 24.477 67.9307 39.7437C67.9769 39.8971 68.0018 40.0597 68.0018 40.2282C68.0018 40.4066 67.974 40.5785 67.9223 40.7397C67.5336 55.7822 55.2956 67.8721 40.2075 67.9985C40.1703 68.0001 40.1329 68.0004 40.0954 67.9995C40.0676 68.0002 40.0398 68.0002 40.0121 67.9995L39.9686 67.9995C24.524 67.9995 12.0028 55.4637 12.0018 40C12.0008 24.5362 24.5204 12.0004 39.965 12.0004ZM35.9569 62.4507C34.8154 60.1387 33.8606 57.7604 33.0924 55.3374C31.2795 55.1096 29.4757 54.7866 27.6888 54.3683C29.7061 57.5324 32.4622 60.3188 35.9569 62.4507ZM23.1508 53.0877C24.9105 56.7723 27.4611 60.1356 30.8028 62.8889C25.2127 60.6428 20.6359 56.4035 17.95 51.0492C19.6548 51.8248 21.391 52.5043 23.1508 53.0877ZM25.5993 50.3516C27.7432 50.9918 29.9206 51.482 32.1157 51.822C31.3344 48.5585 30.8812 45.2346 30.7563 41.9012H23.6229C23.8236 44.7926 24.4824 47.6545 25.5993 50.3516ZM20.2735 41.9012C20.4202 44.2842 20.8429 46.6514 21.5415 48.9432C19.9923 48.3282 18.4668 47.631 16.9714 46.8518L16.1947 46.447C15.799 44.9814 15.535 43.4616 15.416 41.9012H20.2735ZM23.5948 38.5551H30.741C30.8397 35.0779 31.2953 31.6086 32.1078 28.2048C29.9108 28.5454 27.7315 29.0364 25.5858 29.6778C24.4181 32.5082 23.7544 35.5193 23.5948 38.5551ZM21.5314 31.0861C20.794 33.5151 20.3664 36.0284 20.2486 38.5551H15.3853C15.4839 36.8452 15.7565 35.182 16.1857 33.583L16.9705 33.174C18.4629 32.3963 19.9853 31.7003 21.5314 31.0861ZM27.6677 25.662C29.4581 25.2422 31.2654 24.918 33.082 24.6894C33.8513 22.2572 34.8087 19.8698 35.954 17.5493C32.4484 19.688 29.6863 22.4853 27.6677 25.662ZM30.8 17.111C27.4494 19.8719 24.8942 23.2463 23.1345 26.9429C21.3741 27.5272 19.6372 28.2076 17.9318 28.9842C20.6147 23.6141 25.1984 19.3617 30.8 17.111ZM46.8075 24.7757C46.0445 22.2564 45.0876 19.7814 43.9371 17.373C47.6849 19.5939 50.6027 22.5587 52.6907 25.938C50.7483 25.437 48.7839 25.0496 46.8075 24.7757ZM49.6356 17.3205C52.9792 20.1395 55.5117 23.5768 57.233 27.3323C58.9161 27.934 60.5758 28.6245 62.2052 29.404C59.6318 23.9998 55.1514 19.6811 49.6356 17.3205ZM47.7435 28.3039C50.1034 28.7005 52.4411 29.2712 54.7369 30.0159C55.8202 32.7474 56.4386 35.6399 56.5922 38.5551H49.0419C48.9471 35.1136 48.5143 31.6792 47.7435 28.3039ZM58.7857 31.5297C59.4432 33.8205 59.8275 36.1819 59.9385 38.5551H64.5482C64.456 36.9603 64.2125 35.4062 63.8317 33.9069C63.6726 33.8774 63.5151 33.824 63.3641 33.7454L62.2677 33.174C61.1237 32.5779 59.9621 32.0298 58.7857 31.5297ZM49.0276 41.9012H56.5646C56.3726 44.6722 55.7599 47.416 54.7264 50.0137C52.4325 50.7572 50.0968 51.3269 47.7389 51.7229C48.4789 48.4881 48.9085 45.1991 49.0276 41.9012ZM59.914 41.9012C59.777 44.1308 59.3984 46.3465 58.7783 48.4996C59.9576 47.9986 61.1219 47.4493 62.2686 46.8518L63.3649 46.2804C63.5137 46.2029 63.6688 46.15 63.8255 46.1202C64.1735 44.7558 64.4079 43.3459 64.5178 41.9012H59.914ZM46.8013 55.2512C48.774 54.9781 50.7347 54.592 52.6735 54.0927C50.5873 57.4593 47.6761 60.4129 43.94 62.627C45.0861 60.2272 46.0399 57.7612 46.8013 55.2512ZM57.2205 52.6985C55.5 56.4419 52.9727 59.8681 49.6387 62.6794C55.1427 60.3236 59.6154 56.0179 62.1906 50.6295C60.5619 51.408 58.9028 52.0977 57.2205 52.6985ZM35.6606 27.7861C34.7199 31.3161 34.1945 34.9307 34.0844 38.5551H45.6986C45.5926 34.9517 45.0907 31.3574 44.1931 27.8399C41.3557 27.574 38.5004 27.5561 35.6606 27.7861ZM36.7139 24.3605C38.868 24.2409 41.0278 24.2544 43.1806 24.4012C42.3352 21.8747 41.2788 19.4011 40.0113 17.0066C38.6931 19.3815 37.5939 21.8423 36.7139 24.3605ZM45.6833 41.9012H34.1007C34.2404 45.3816 34.7632 48.85 35.6692 52.2403C38.5045 52.4695 41.3551 52.4516 44.1879 52.1865C45.0514 48.8091 45.5498 45.3607 45.6833 41.9012ZM43.1737 55.6252C41.0269 55.7712 38.8732 55.7847 36.7251 55.6658C37.6039 58.1748 38.7003 60.6268 40.0142 62.9934C41.277 60.6073 42.3302 58.1425 43.1737 55.6252Z" fill="url(#paint0_linear_693_2375)"/>
<g filter="url(#filter0_d_693_2375)">
<path d="M40.3067 53.2289L46.2678 37.5044H49.0389L55 53.2289H52.2611L50.8756 49.2333H44.5278L43.0456 53.2289H40.3067ZM45.3011 46.9456H50.0378L47.7178 40.4367H47.5889L45.3011 46.9456ZM29.9311 49.2978L28.0944 47.4611L34.7322 40.8233C33.8944 39.9211 33.1641 38.9759 32.5411 37.9878C31.9181 36.9996 31.3811 35.9578 30.93 34.8622H33.6689C34.077 35.657 34.5067 36.3711 34.9578 37.0044C35.4089 37.6385 35.9459 38.2993 36.5689 38.9867C37.5356 37.9341 38.336 36.86 38.9701 35.7644C39.6034 34.6689 40.1348 33.4981 40.5644 32.2522H26V29.61H35.1833V27H37.8256V29.61H47.0089V32.2522H43.2067C42.7341 33.7989 42.106 35.3077 41.3223 36.7788C40.5378 38.2507 39.5656 39.6204 38.4056 40.8878L41.5633 44.11L40.5644 46.8167L36.5044 42.7244L29.9311 49.2978Z" fill="white"/>
<path d="M40.3702 46.6209L36.6805 42.9019L40.3702 46.6209ZM40.3702 46.6209L40.3299 46.7301L40.5644 46.8167L40.7419 46.6406L40.6599 46.5579L41.5633 44.11L38.4056 40.8878C39.5656 39.6204 40.5378 38.2507 41.3223 36.7788L40.3702 46.6209ZM40.0729 53.1403L39.9445 53.4789H40.3067H43.0456H43.2195L43.2799 53.3158L44.7017 49.4833H50.6976L52.0249 53.3108L52.0832 53.4789H52.2611H55H55.3621L55.2338 53.1403L49.2727 37.4158L49.2115 37.2544H49.0389H46.2678H46.0952L46.034 37.4158L40.0729 53.1403ZM29.7543 49.4746L29.9311 49.6513L30.1079 49.4746L36.5037 43.0787L40.387 46.9927L40.6632 47.2712L40.799 46.9032L41.7979 44.1966L41.8527 44.0481L41.7419 43.935L38.7489 40.881C39.8529 39.6478 40.7844 38.3196 41.5429 36.8964L41.543 36.8963C42.304 35.4676 42.9202 34.0029 43.391 32.5022H47.0089H47.2589V32.2522V29.61V29.36H47.0089H38.0756V27V26.75H37.8256H35.1833H34.9333V27V29.36H26H25.75V29.61V32.2522V32.5022H26H40.2107C39.8079 33.6102 39.3222 34.6558 38.7536 35.6393C38.1705 36.6468 37.443 37.6383 36.5699 38.6134C36.0304 38.0058 35.5611 37.4212 35.1615 36.8594L35.1614 36.8593C34.7182 36.2372 34.2947 35.5337 33.8913 34.748L33.8215 34.6122H33.6689H30.93H30.5567L30.6988 34.9574C31.1553 36.066 31.6989 37.1207 32.3296 38.1211C32.9205 39.0583 33.6061 39.9566 34.3861 40.8159L27.9177 47.2843L27.7409 47.4611L27.9177 47.6379L29.7543 49.4746ZM49.6833 46.6956H45.654L47.6545 41.0038L49.6833 46.6956Z" stroke="white" stroke-width="0.5"/>
</g>
<defs>
<filter id="filter0_d_693_2375" x="10.894" y="13.563" width="59.4367" height="56.4406" filterUnits="userSpaceOnUse" color-interpolation-filters="sRGB">
<feFlood flood-opacity="0" result="BackgroundImageFix"/>
<feColorMatrix in="SourceAlpha" type="matrix" values="0 0 0 0 0 0 0 0 0 0 0 0 0 0 0 0 0 0 127 0" result="hardAlpha"/>
<feOffset dy="1.66906"/>
<feGaussianBlur stdDeviation="7.30301"/>
<feComposite in2="hardAlpha" operator="out"/>
<feColorMatrix type="matrix" values="0 0 0 0 1 0 0 0 0 1 0 0 0 0 1 0 0 0 0.65 0"/>
<feBlend mode="normal" in2="BackgroundImageFix" result="effect1_dropShadow_693_2375"/>
<feBlend mode="normal" in="SourceGraphic" in2="effect1_dropShadow_693_2375" result="shape"/>
</filter>
<linearGradient id="paint0_linear_693_2375" x1="40" y1="12" x2="39.9855" y2="67.011" gradientUnits="userSpaceOnUse">
<stop stop-color="#D4D4D4"/>
<stop offset="1" stop-color="#D4D4D4" stop-opacity="0.26"/>
</linearGradient>
</defs>
</svg>