<svg xmlns="http://www.w3.org/2000/svg" xmlns:xlink="http://www.w3.org/1999/xlink" xmlns:serif="http://www.serif.com/" width="100%" height="100%" viewBox="0 0 225 189" version="1.1" xml:space="preserve" style="fill-rule:evenodd;clip-rule:evenodd;stroke-linejoin:round;stroke-miterlimit:1.41421;" data-arp-injected="true">
    <g transform="matrix(4.16667,0,0,4.16667,97.3875,0)">
        <path d="M0,45.134L-20.754,45.134C-22.499,38.012 -23.373,31.361 -23.373,25.185C-23.373,8.393 -15.851,0 -0.806,0L-0.806,10.072C-7.253,10.072 -10.478,13.902 -10.478,21.56L-10.478,25.79L0,25.79L0,45.134Z" style="fill:white;fill-rule:nonzero;"/>
    </g>
    <g transform="matrix(4.16667,0,0,4.16667,225,0)">
        <path d="M0,45.134L-20.755,45.134C-22.503,38.012 -23.373,31.361 -23.373,25.185C-23.373,8.393 -15.851,0 -0.807,0L-0.807,10.072C-7.254,10.072 -10.478,13.902 -10.478,21.56L-10.478,25.79L0,25.79L0,45.134Z" style="fill:white;fill-rule:nonzero;"/>
    </g>
</svg>